<svg xmlns="http://www.w3.org/2000/svg" width="1240" height="1240"><path d="M589.5 8.536c-56.535 4.062-77.435 7.122-106.564 15.604-3.61 1.051-9.293 2.351-12.63 2.888-3.336.537-9.608 2.1-13.936 3.472-4.329 1.372-9.67 2.979-11.87 3.571-2.2.593-7.375 2.219-11.5 3.613-4.125 1.395-9.226 3.002-11.336 3.57-3.969 1.069-5.658 3.152-3.945 4.865.645.645 2.325.495 4.882-.436 5.313-1.935 27.894-9.017 38.899-12.199 8.991-2.601 22.329-5.679 32.264-7.447 2.896-.515 5.677-1.192 6.181-1.503.504-.311 7.134-1.683 14.735-3.048 7.601-1.365 16.067-2.95 18.814-3.523C567.001 10.98 652.05 9.721 698 15.529c17.024 2.152 42.504 6.796 50.5 9.204 2.75.828 7.925 1.728 11.5 2l6.5.494-2-2.065c-3.424-3.537-39.03-10.889-63.5-13.112-6.875-.624-16.55-1.562-21.5-2.083-26.188-2.756-63.336-3.346-90-1.431m183.959 19.531c-.363.586-.502 1.18-.309 1.318 1.043.751 22.677 6.615 24.406 6.615 1.124 0 2.471.399 2.994.888.522.488 5.675 2.35 11.45 4.138 5.775 1.788 13.425 4.494 17 6.014 3.575 1.52 8.3 3.316 10.5 3.99 4.458 1.366 7.261 2.507 9.5 3.866.825.501 3.525 1.479 6 2.173s8.699 3.213 13.831 5.597C873.963 65.05 878.74 67 879.446 67c.707 0 2.357.822 3.669 1.826 1.312 1.005 5.31 3.261 8.885 5.014 3.575 1.753 7.625 3.816 9 4.584 1.375.768 7 3.566 12.5 6.217 5.5 2.652 11.272 5.842 12.827 7.09 1.555 1.248 4.03 2.562 5.5 2.92 1.47.357 4.148 1.929 5.951 3.493 1.803 1.564 5.035 3.74 7.182 4.836 2.147 1.095 4.201 2.472 4.564 3.059.363.587 2.981 2.098 5.818 3.357 2.837 1.259 6.508 3.422 8.158 4.806 1.65 1.384 4.462 3.266 6.25 4.183 1.788.916 3.25 2.037 3.25 2.49 0 .453 4.179 3.573 9.286 6.933 5.108 3.36 10.361 7.252 11.675 8.65 1.313 1.398 2.903 2.542 3.533 2.542.63 0 2.546 1.237 4.256 2.75 1.711 1.512 6.346 5.45 10.3 8.75 19.091 15.934 23.019 19.397 30.528 26.914 4.443 4.447 10.518 10.354 13.5 13.127 2.982 2.772 8.797 8.762 12.922 13.311 4.125 4.548 8.703 9.48 10.174 10.959 2.365 2.378 5.197 5.749 18.138 21.592a682.213 682.213 0 006.229 7.5c1.673 1.978 3.698 4.555 4.5 5.725.802 1.171 4.159 5.671 7.459 10 3.3 4.33 6.541 9.11 7.202 10.622.661 1.512 1.576 2.75 2.034 2.75.458 0 1.695 1.462 2.749 3.25 1.055 1.787 3.462 5.275 5.35 7.75 1.888 2.475 3.915 5.625 4.504 7 .589 1.375 2.27 4.3 3.736 6.5 3.978 5.971 8.925 14.429 8.927 15.265.002.404 1.689 3.225 3.75 6.268 3.162 4.667 17.712 32.822 21.172 40.967.584 1.375 1.486 3.175 2.005 4 2.452 3.898 9.912 20.09 11.518 25 .99 3.025 2.624 7.525 3.632 10 5.129 12.594 15.426 42.569 19.923 58 1.203 4.125 2.6 8.85 3.105 10.5.506 1.65 1.79 7.5 2.855 13 1.064 5.5 3.033 15.175 4.375 21.5 1.342 6.325 2.753 14.425 3.136 18 .383 3.575 1.528 8.975 2.543 12 1.016 3.025 2.089 9.1 2.386 13.5.296 4.4 1.261 15.2 2.143 24 1.898 18.93 2.196 82.053.475 100.46-2.418 25.855-3.16 31.957-4.988 41.04-1.051 5.225-2.649 14.225-3.549 20-.901 5.775-2.728 14.955-4.061 20.399-1.332 5.444-2.422 11.017-2.422 12.384 0 2.679-.816 6.016-4.698 19.217-5.5 18.701-6.722 22.546-7.509 23.619-.451.615-1.671 4.215-2.711 8-1.041 3.784-2.863 9.356-4.051 12.381a263.77 263.77 0 00-3.985 11c-1.004 3.025-2.522 6.85-3.373 8.5-.852 1.65-2.519 6.15-3.706 10-1.188 3.85-3.138 8.575-4.334 10.5-2.905 4.674-8.892 17.143-11.625 24.211-1.215 3.141-2.838 6.233-3.608 6.872-.77.639-1.4 1.582-1.4 2.096 0 .833-1.546 4.063-7.57 15.821-.987 1.925-3.455 5.975-5.487 9-2.031 3.025-5.62 9.1-7.977 13.5s-5.038 8.9-5.959 10c-.921 1.1-2.905 4.025-4.408 6.5-2.836 4.669-8.435 13.024-11.056 16.5C1119 978.849 1113 987.593 1113 988.322c0 .476-4.046 5.453-8.99 11.06-4.945 5.607-10.287 12.203-11.871 14.657-1.585 2.453-5.752 7.4-9.26 10.992-3.509 3.592-7.633 8.196-9.165 10.231-2.536 3.367-5.962 6.885-20.389 20.938a418.15 418.15 0 00-9.257 9.355c-2.438 2.56-6.826 6.462-9.75 8.67-2.925 2.209-5.318 4.321-5.318 4.696 0 .374-3.147 3.269-6.994 6.434-7.882 6.484-9.979 9.334-7.552 10.266.92.353 2.966-.66 5.078-2.515 1.946-1.708 3.917-3.106 4.381-3.106.465 0 1.397-1.335 2.073-2.967.676-1.631 2.13-3.252 3.231-3.602 5.948-1.888 45.604-41.423 64.126-63.931a1646.71 1646.71 0 0112.088-14.5c5.908-6.977 12.486-15.725 15.319-20.371.962-1.578 3.561-5.178 5.774-8 5.25-6.691 11.476-15.916 11.476-17.004 0-.471 1.575-3.003 3.5-5.625s3.5-5.175 3.5-5.672c0-.497 1.332-2.462 2.959-4.366 1.628-1.904 2.978-3.821 3-4.26.023-.439 1.695-3.364 3.716-6.5 7.094-11.006 34.325-66.296 34.325-69.694 0-1.805 1.115-4.873 2.53-6.957 1.392-2.051 3.815-7.435 5.384-11.965 1.57-4.53 3.589-9.659 4.488-11.396 3.895-7.532 15.56-46.216 18.603-61.69.649-3.3 2.239-9.6 3.535-14 1.295-4.4 2.821-10.925 3.392-14.5.57-3.575 1.671-8.975 2.447-12 2.296-8.959 5.263-30.028 6.125-43.5.316-4.95 1.011-12.6 1.543-17 1.669-13.796 2.421-58.756 1.027-61.362-.923-1.725-.935-2.6-.051-3.666 1.198-1.444 1.042-5.996-1.065-30.972-2.454-29.088-3.235-37.4-4.088-43.5a692.24 692.24 0 01-1.279-9.575c-.565-4.707-2.698-14.685-3.617-16.925-.451-1.1-1.118-4.025-1.482-6.5-1.525-10.378-1.772-11.553-2.664-12.667-.514-.642-1.058-2.217-1.209-3.5-.151-1.283-.537-3.008-.858-3.833-1.115-2.869-2.638-10.538-3.329-16.772-.383-3.45-1.086-6.514-1.564-6.809-.477-.296-.868-1.887-.868-3.537 0-1.745-.418-2.742-1-2.382-.55.34-1-.299-1-1.42 0-2.759-3.724-14.365-6.714-20.928-1.341-2.942-2.791-7.584-3.223-10.317-.432-2.732-1.778-6.311-2.991-7.951-1.213-1.641-2.009-3.524-1.769-4.184.24-.66-.133-1.875-.829-2.7-1.372-1.626-4.474-10.233-4.474-12.413 0-.738-.646-1.878-1.436-2.534-.789-.655-1.747-2.608-2.127-4.339-.38-1.732-1.013-3.838-1.406-4.681a987.74 987.74 0 00-2.876-6.033c-1.188-2.475-2.159-4.879-2.158-5.342.002-.464-.897-1.987-1.997-3.385-1.1-1.399-2-3.327-2-4.285 0-.959-.68-2.308-1.512-2.998-1.535-1.274-5.488-9.393-5.488-11.273 0-.565-1.03-2.421-2.289-4.123-1.259-1.702-4.924-8.494-8.144-15.094-3.22-6.6-6.936-13.172-8.258-14.604-2.379-2.577-3.386-4.18-9.358-14.896-3.378-6.061-8.966-14.509-11.434-17.284-1.4-1.576-7.246-10.091-10.017-14.592-.55-.893-2.8-3.942-5-6.774-2.2-2.833-5.884-7.783-8.187-11-2.302-3.218-5.79-7.401-7.75-9.296-1.959-1.896-3.563-4.017-3.563-4.715 0-.698-.86-1.729-1.911-2.291-1.05-.563-2.935-2.716-4.187-4.785-1.252-2.07-4.78-6.239-7.839-9.264-3.06-3.026-6.742-7.076-8.184-9-5.788-7.728-38.562-39.333-52.136-50.276-1.516-1.223-5.338-4.654-8.494-7.625-3.156-2.971-8.216-7.02-11.244-8.997-3.028-1.977-5.867-4.162-6.309-4.855-.442-.693-2.467-2.113-4.5-3.155-2.033-1.043-4.733-3.097-6.001-4.565-1.268-1.468-3.631-3.131-5.25-3.695-1.62-.565-2.945-1.427-2.945-1.916 0-.969-4.804-4.241-16.634-11.331-2.676-1.604-5.766-3.644-6.866-4.534-1.1-.89-4.025-2.678-6.5-3.974-2.475-1.296-5.175-3.159-6-4.139-.825-.981-6.399-4.326-12.387-7.434-5.988-3.108-12.617-6.743-14.73-8.077-2.114-1.334-4.14-2.426-4.503-2.426-.362 0-2.734-1.252-5.269-2.783-2.536-1.53-6.636-3.661-9.111-4.735-2.475-1.074-5.91-2.894-7.634-4.044-1.724-1.15-5.634-2.878-8.689-3.838-3.055-.961-6.087-2.389-6.738-3.174-.651-.784-1.759-1.426-2.463-1.426-1.546 0-20.448-7.559-29.476-11.787-3.575-1.674-11-4.377-16.5-6.006-5.5-1.629-11.742-3.692-13.872-4.584-2.13-.893-4.605-1.621-5.5-1.619-1.456.004-10.297-2.514-23.128-6.586-5.328-1.691-9.625-1.834-10.541-.351M401 48.912C396.425 51.351 383.01 57 381.793 57c-.949 0-7.925 3.16-25.793 11.682l-17.5 8.345c-4.4 2.098-8.788 4.061-9.75 4.362-.962.302-1.75 1.164-1.75 1.916 0 .817-2.381 2.029-5.918 3.012-3.481.968-7.278 2.888-9.223 4.664-1.817 1.661-3.986 3.019-4.819 3.019-.832 0-4.444 1.957-8.027 4.348A983.84 983.84 0 01287 106.23c-22.427 14.407-24.743 16.066-40.818 29.233-2.375 1.945-4.857 3.537-5.516 3.537-.658 0-4.115 2.796-7.681 6.214-3.567 3.417-9.86 8.891-13.985 12.163-6.431 5.102-12.034 10.308-31.383 29.16-7.127 6.943-29.154 30.905-31.918 34.72-1.641 2.265-3.932 5.156-5.091 6.423-2.209 2.416-7.078 7.986-13.062 14.941-1.95 2.267-3.546 4.467-3.546 4.89 0 .423-3.289 5.093-7.31 10.379-4.02 5.285-8.183 11.029-9.25 12.764-1.067 1.735-4.169 6.46-6.894 10.5-5.808 8.614-6.649 9.982-12.386 20.152-2.388 4.232-4.757 7.694-5.266 7.694-.509 0-2.651 3.488-4.762 7.75-2.11 4.262-8.844 17.487-14.965 29.387-6.121 11.901-12.315 24.951-13.764 29-1.449 4.05-3.04 7.868-3.535 8.485-.495.617-1.957 4.217-3.25 8-1.292 3.783-3.291 8.903-4.441 11.378-2.791 6.004-8.777 22.596-11.725 32.5-5.637 18.937-6.609 22.415-8.385 30a956.228 956.228 0 01-4.015 16.329c-1.178 4.581-2.524 10.206-2.99 12.5-.467 2.294-1.962 9.346-3.323 15.671-1.361 6.325-2.997 16-3.636 21.5-.64 5.5-1.804 14.95-2.588 21C8.679 574.387 8 587.296 7.983 619.612c-.017 33.486 1.028 53.375 3.698 70.388.82 5.225 1.887 14.367 2.371 20.316 1.057 12.977 5.852 35.972 14.74 70.684 5.995 23.416 15.275 51.402 18.634 56.198.866 1.236 1.573 3.159 1.571 4.275-.002 1.803 2.74 9.421 6.489 18.027.719 1.65 2.343 5.7 3.61 9s4.805 10.275 7.862 15.5c6.373 10.89 7.036 12.128 17.57 32.75 4.284 8.388 8.175 15.25 8.647 15.25.471 0 1.625 1.688 2.564 3.75.938 2.063 2.956 5.631 4.483 7.93 1.528 2.299 2.778 4.662 2.778 5.25 0 .589.45 1.07 1 1.07s1 .527 1 1.171.63 1.882 1.401 2.75c.77.869 2.641 3.819 4.159 6.556 3.344 6.035 16.328 23.854 20.456 28.074 1.641 1.678 2.984 3.657 2.984 4.397 0 .741 3.375 5.293 7.5 10.116 4.125 4.823 7.5 9.067 7.5 9.432 0 .937 11.343 13.918 24.472 28.004 17.033 18.276 18.396 19.663 27.528 27.996a3405.706 3405.706 0 0112 10.997c4.254 3.937 19.718 17.016 26.272 22.219 2.624 2.083 6.449 5.153 8.5 6.822a221.682 221.682 0 007.728 5.947c2.2 1.602 4.225 3.224 4.5 3.603.275.38 1.904 1.528 3.62 2.553 1.717 1.025 6.391 4.113 10.389 6.863 12.547 8.632 14.881 9.836 16.482 8.508 1.743-1.447 3.509-.503 3.509 1.876 0 .971.788 2.531 1.75 3.466 2.164 2.101 8.905 6.543 11.684 7.699 1.136.472 6.116 3.354 11.066 6.405 4.95 3.05 17.775 9.822 28.5 15.048 10.725 5.226 21.975 10.812 25 12.413 3.025 1.602 9.775 4.556 15 6.565 5.225 2.009 14 5.4 19.5 7.536 5.5 2.135 11.575 4.13 13.5 4.433 1.925.303 6.29 1.871 9.699 3.484 3.41 1.614 9.71 3.887 14 5.051 4.291 1.164 8.701 2.522 9.801 3.016 2.32 1.043 11.385 3.322 20 5.027 3.3.653 7.125 1.561 8.5 2.017 4.894 1.625 19.895 4.956 22.317 4.956 1.355 0 6.675.845 11.823 1.879 5.148 1.033 10.035 1.926 10.86 1.983.825.058 5.1.789 9.5 1.625 4.4.835 12.725 1.957 18.5 2.494 5.775.536 14.325 1.537 19 2.225 5.66.833 21.696 1.258 48 1.272 44.366.025 58.322-1.028 95.5-7.201 11.55-1.917 23.623-3.888 26.83-4.379 3.206-.49 9.281-1.827 13.5-2.969 4.218-1.142 12.395-3.133 18.17-4.424 13.667-3.054 17.852-4.101 21.5-5.379 2.794-.979 7.355-2.505 26.5-8.865 10.394-3.452 17.892-6.156 21.906-7.899 3.031-1.315 3.24-1.644 1.903-2.982-1.337-1.337-2.89-1-14.086 3.059-6.953 2.52-14.35 4.561-16.532 4.561-3.456 0-4.105-.379-5.207-3.04-.693-1.672-2.209-3.704-3.369-4.517-1.905-1.335-6.177-7.078-13.227-17.786-2.76-4.191-2.534-6.545.71-7.393 1.694-.443 2.001-1.132 1.625-3.655-.555-3.721-4.252-15.406-9.211-29.109-7.057-19.499-8.682-24.062-10.504-29.5-1.014-3.025-3.481-9.775-5.483-15s-5.598-14.9-7.992-21.5c-2.393-6.6-5.482-14.925-6.864-18.5-2.474-6.402-3.493-9.157-10.359-28-1.903-5.225-3.837-10.4-4.296-11.5-1.275-3.052-7.621-20.425-9.315-25.5-.826-2.475-4.664-12.825-8.53-23-3.865-10.175-9.093-24.125-11.617-31-2.525-6.875-5.011-13.4-5.526-14.5-.514-1.1-2.271-5.825-3.905-10.5a1071.799 1071.799 0 00-6.135-17 1098.919 1098.919 0 01-5.455-15c-1.258-3.575-3.877-10.55-5.82-15.5-1.942-4.95-4.661-12.15-6.041-16-6.397-17.845-14.076-38.392-15.786-42.239-1.036-2.332-1.884-4.519-1.884-4.862 0-.809-6.792-19.294-8.047-21.899-.53-1.1-2.29-5.825-3.911-10.5-4.143-11.946-8.875-24.803-10.461-28.426a97.1 97.1 0 01-2.38-6.074c-2.433-7.062-6.426-18.153-7.2-20-.461-1.1-2.064-5.375-3.563-9.5a1098.869 1098.869 0 00-5.082-13.671c-1.296-3.393-2.356-6.475-2.356-6.848 0-.373-.632-2.097-1.404-3.83-.773-1.733-3.504-8.776-6.07-15.651-2.567-6.875-5.145-13.625-5.731-15-.586-1.375-1.648-4.3-2.36-6.5-1.761-5.438-11.238-31.515-12.356-34-.917-2.036-7.401-19.545-9.259-25-.562-1.65-1.383-3.9-1.824-5-1.62-4.037-9.941-26.284-13.465-36-1.995-5.5-4.478-12.25-5.518-15s-3.512-9.5-5.494-15c-1.981-5.5-4.009-10.9-4.506-12-.497-1.1-3.436-8.975-6.53-17.5-3.095-8.525-6.001-16.4-6.457-17.5-.457-1.1-1.819-4.7-3.026-8-1.207-3.3-2.549-6.9-2.981-8a7593.29 7593.29 0 01-11.39-29.167c-3.028-7.791-8.402-19.941-11.943-27-8.729-17.403-8.686-17.07-2.962-22.437 2.579-2.418 6.508-5.906 8.732-7.751 2.224-1.845 8.319-7.294 13.544-12.108 26.921-24.803 32.23-29.004 40.5-32.051 1.1-.405 3.259-1.243 4.797-1.861 6.718-2.701 7.077-2.288 21.375 24.603a724.75 724.75 0 005.385 9.874 754.5 754.5 0 016.322 11.671c1.812 3.425 4.765 8.927 6.564 12.227 1.799 3.3 4.964 9.15 7.035 13 2.071 3.85 4.784 8.8 6.029 11 1.244 2.2 3.148 5.688 4.229 7.75 3.202 6.108 3.713 5.357 5.27-7.75 3.393-28.572 16.315-60.169 34.957-85.481 6.425-8.722 7.487-9.951 18.037-20.858 24.207-25.026 54.651-44.34 90.5-57.412 15.394-5.613 38.975-11.232 55.5-13.225 8.33-1.004 39.146-.668 47.84.522 17.535 2.4 40.185 8.541 55.16 14.954 14.358 6.149 24.699 12.136 44.857 25.971 10.303 7.07 30.842 25.798 43.188 39.379 7.863 8.649 33.455 43.301 33.455 45.299 0 .288 1.285 2.398 2.857 4.688 8.915 12.994 25.982 47.94 35.487 72.663 7.746 20.147 18.227 55.303 21.167 71 3.454 18.442 5.435 29.68 5.904 33.5 4.679 38.09 3.508 83.16-2.858 110-.782 3.3-2.176 9.6-3.097 14-3.553 16.978-11.323 38.229-21.205 58-4.855 9.713-13.662 24.913-16.082 27.757-.823.966-1.985 2.569-2.584 3.561-3.648 6.047-5.88 9.182-6.535 9.182-.412 0-1.155.869-1.651 1.931-3.254 6.958-35.866 39.241-46.403 45.935-1.375.873-2.725 1.836-3 2.14-1.216 1.343-11.231 8.033-19.278 12.877-27.974 16.842-59.125 28.947-90.793 35.282-15.641 3.129-17.484 3.285-38.429 3.251-16.244-.026-24.355-.474-31-1.715-16.011-2.99-31.005-7.329-39.6-11.459-4.62-2.22-8.78-3.805-9.244-3.522-1.175.716-.499 3.163 4.358 15.78 4.175 10.847 7.517 19.887 14.973 40.5 2.089 5.775 4.261 11.625 4.826 13 .565 1.375 2.676 7 4.69 12.5 3.386 9.244 7.219 19.445 14.466 38.5 1.569 4.125 3.146 8.625 3.505 10 .358 1.375 1.017 3.4 1.464 4.5 2.475 6.091 3.389 8.479 6.624 17.313 1.952 5.328 3.953 10.587 4.448 11.687.494 1.1 2.222 5.825 3.839 10.5 2.553 7.383 6.544 17.97 9.235 24.5.454 1.1 4.507 12.125 9.008 24.5 14.64 40.256 14.11 39 16.452 39 1.184 0 1.246.363.314 1.855-1.775 2.843 6.561 24.145 9.449 24.145 2.42 0 18.14-8.278 21.693-11.423 2.214-1.96 4.257-3.387 10.111-7.065.886-.557 3.924-2.257 6.75-3.779 2.826-1.522 5.139-3.209 5.139-3.75 0-.541.503-.983 1.119-.983 1.359 0 16.398-10.305 19.881-13.624 2.46-2.343 12.992-10.44 17.4-13.376 3.712-2.473 19.595-16.443 19.597-17.237.002-.406 1.691-1.812 3.753-3.124 2.063-1.312 10.841-9.53 19.508-18.263a26961.93 26961.93 0 0118.75-18.877c1.646-1.65 2.992-3.407 2.992-3.904 0-.497 2.691-3.339 5.98-6.315 3.289-2.976 8.43-9.094 11.425-13.596 2.995-4.501 6.942-9.828 8.77-11.838 5.938-6.527 11.313-12.965 11.831-14.169 1.186-2.756 10.457-16.245 11.669-16.977.729-.44 1.325-1.24 1.325-1.778 0-1.039 9.867-16.199 12.494-19.197.856-.976 3.047-4.801 4.869-8.5 1.823-3.699 4.723-8.975 6.445-11.725 1.722-2.75 4.731-8.15 6.688-12 1.957-3.85 3.989-7.675 4.517-8.5 1.522-2.382 10.669-22.241 11.514-25 .421-1.375 2.236-5.65 4.032-9.5 6.714-14.388 8.7-19.338 13.04-32.5 2.448-7.425 6.24-18.942 8.426-25.592 2.186-6.651 3.982-13.176 3.99-14.5.008-1.325.732-4.433 1.609-6.908 2.093-5.907 5.266-18.104 6.505-25 .543-3.025 1.43-6.935 1.972-8.688 1.829-5.926 4.559-24.031 5.928-39.312.517-5.775 1.399-12.75 1.961-15.5 3.1-15.185 2.882-95.06-.318-116.5-.862-5.775-2.315-16.575-3.229-24a9838.08 9838.08 0 00-2.354-19c-.381-3.025-1.198-7.075-1.816-9-.619-1.925-2.121-8-3.339-13.5-1.217-5.5-3.276-13.116-4.574-16.924-1.298-3.809-2.36-7.965-2.36-9.236 0-2.279-5.521-20.231-11.023-35.84-1.551-4.4-3.765-11.115-4.919-14.923-1.155-3.807-2.493-7.407-2.974-8-.482-.592-2.052-3.887-3.49-7.322a591.085 591.085 0 00-5.208-12c-1.426-3.165-3.049-6.88-3.605-8.255-.557-1.375-1.412-3.175-1.899-4-.488-.825-1.345-2.625-1.905-4s-1.439-3.4-1.953-4.5a358.09 358.09 0 01-2.478-5.5c-2.039-4.62-7.918-15.53-9.262-17.188-.585-.722-3.207-5.362-5.826-10.312-2.618-4.95-5.916-10.8-7.328-13-1.413-2.2-3.61-6.02-4.884-8.488-1.274-2.469-3.566-5.844-5.094-7.5-1.528-1.657-4.515-5.712-6.637-9.012-2.122-3.3-4.681-7.219-5.687-8.71-1.005-1.49-1.828-3.016-1.828-3.392 0-.375-2.072-3.107-4.604-6.071-2.532-2.964-6.657-8.188-9.167-11.608-7.23-9.853-22.463-27.741-31.985-37.56-4.809-4.959-9.897-10.286-11.306-11.837-2.755-3.034-19.141-18.605-31.092-29.548-4.04-3.699-10.763-9.324-14.94-12.5-7.54-5.733-11.52-8.906-18.678-14.891-2.051-1.714-7.064-5.184-11.141-7.712-4.077-2.527-8.802-5.726-10.5-7.108-7.59-6.18-12.85-9.747-16.994-11.523-2.458-1.054-5.284-2.674-6.281-3.602-2.423-2.255-34.652-20.581-41.297-23.482-1.367-.597-4.067-1.772-6-2.612-3.843-1.67-11.401-5.162-23.015-10.634-4.125-1.943-9.75-4.334-12.5-5.313-2.75-.978-5.9-2.327-7-2.998-1.1-.67-4.925-2.016-8.5-2.99-3.575-.975-9.599-3.041-13.388-4.591-3.788-1.55-7.713-2.818-8.723-2.818-1.009 0-3.985-.966-6.612-2.146-8.067-3.625-8.581-3.802-15.277-5.26-3.575-.779-12.575-2.993-20-4.92-7.425-1.927-15.75-3.828-18.5-4.225-2.75-.397-6.1-1.132-7.445-1.635-3.099-1.157-14.68-2.768-27.555-3.832-5.5-.455-15.85-1.763-23-2.908-28.114-4.5-91.547-4.778-116-.508-4.4.768-10.268 1.405-13.04 1.416-2.772.01-7.497.638-10.5 1.396-3.003.757-9.285 1.671-13.96 2.031-4.675.36-11.875 1.492-16 2.516s-10.425 2.379-14 3.011c-9.374 1.658-28.514 6.871-35.5 9.668-3.3 1.321-6.9 2.41-8 2.419-1.1.01-7.175 1.821-13.5 4.024-6.325 2.203-15.1 5.168-19.5 6.587-4.4 1.42-8.45 2.923-9 3.341-.55.418-3.77 1.704-7.155 2.858-3.386 1.154-7.818 3.227-9.851 4.606-2.032 1.38-5.23 2.796-7.106 3.148-1.875.352-3.657 1.039-3.958 1.526-.301.488-1.33.887-2.286.887-.955 0-2.616.687-3.691 1.526-1.074.839-3.969 2.526-6.433 3.75-3.04 1.509-4.662 3.028-5.045 4.724-.605 2.676-1.034 2.812-5.104 1.616-1.96-.576-3.996-.083-8 1.937-2.954 1.49-5.596 2.992-5.871 3.337-.78.98-11.939 7.589-17.679 10.472-2.849 1.43-5.463 3.059-5.811 3.621-.347.562-3.268 2.33-6.49 3.929-3.223 1.599-8.419 4.86-11.547 7.247-3.127 2.388-8.451 6.245-11.83 8.571-18.923 13.031-21.216 14.701-26.799 19.521-2.389 2.062-6.651 5.437-9.472 7.5-17.602 12.871-64.923 60.145-77.826 77.749-1.613 2.2-3.418 4.45-4.013 5-.594.55-3.292 4.124-5.994 7.942-2.703 3.819-6.519 8.596-8.479 10.616-1.961 2.02-5.139 6.47-7.063 9.889-1.923 3.418-4.509 7.481-5.747 9.028-1.237 1.548-2.25 3.209-2.25 3.691 0 .483-1.996 3.051-4.435 5.708-4.072 4.435-4.598 4.716-6.43 3.433-2.108-1.476-10.009-11.805-12.158-15.892-.698-1.328-1.881-2.777-2.63-3.219-1.759-1.038-5.347-8.068-5.347-10.476 0-1.023 1.511-3.629 3.357-5.79 1.847-2.162 4.338-5.73 5.536-7.93 2.369-4.349 4.255-6.953 14.107-19.473 3.575-4.543 7.171-9.22 7.991-10.394 1.635-2.338 15.582-18.815 25.929-30.633 7.642-8.727 39.515-40.743 46.088-46.294 5.595-4.726 9.581-8.141 18.492-15.846 3.85-3.329 8.65-7.116 10.666-8.416 2.016-1.3 3.968-2.851 4.337-3.449.369-.597 5.132-4.017 10.584-7.601 5.452-3.583 9.913-6.855 9.913-7.271 0-.415 1.852-1.85 4.116-3.189 2.264-1.339 5.302-3.21 6.75-4.157 1.449-.948 4.687-2.826 7.197-4.172 2.509-1.347 5.152-3.159 5.872-4.027.721-.868 1.76-1.578 2.31-1.578.551 0 3.839-2.025 7.307-4.5 3.469-2.475 6.691-4.5 7.161-4.5.47 0 3.301-1.576 6.291-3.503 2.991-1.926 9.276-5.316 13.967-7.532 4.691-2.216 9.654-4.677 11.029-5.47 2.811-1.62 27.466-13.777 36.188-17.843 3.129-1.459 6.37-2.652 7.203-2.652 1.96 0 7.248-2.104 17.609-7.005.825-.39 1.645-1.449 1.823-2.352.45-2.285-4.306-2.139-8.823.269m51.018 79.055c-.986 1.841-.963 2.449.114 3.115 1.79 1.106 3.25-1.576 2.038-3.742-.824-1.473-1.066-1.402-2.152.627M353 150.453c-25.387 5.156-45.105 18.193-55.294 36.558-5.12 9.227-7.151 18.359-7.115 31.989.028 10.831.394 13.603 2.739 20.759 5.235 15.978 11.253 26.653 20.17 35.775 11.906 12.18 24.771 18.012 42.273 19.162 17.64 1.158 39.645-5.999 54.727-17.799 11.804-9.236 19.552-20.967 23.38-35.397 4.465-16.833.304-41.414-9.951-58.78-5.507-9.326-17.547-21.301-25.727-25.588-13.049-6.838-31.207-9.521-45.202-6.679m467.656 3.753c-.692 2.647-.257 3.239 1.801 2.449 1.917-.736 2.051-4.655.16-4.655-.761 0-1.643.993-1.961 2.206m154.336 90.809c-.856 1.599-.746 2.142.532 2.633 2.097.804 3.716-.859 2.902-2.981-.856-2.231-2.122-2.103-3.434.348M678.18 262.25c.176 1.238.995 2.25 1.82 2.25.825 0 1.644-1.012 1.82-2.25.245-1.732-.174-2.25-1.82-2.25-1.646 0-2.065.518-1.82 2.25M650 267.309c0 1.934 2.718 5.307 3.581 4.444.944-.945-1.195-5.753-2.56-5.753-.561 0-1.021.589-1.021 1.309m127 48.262c-25.596 2.592-50.67 11.752-72.643 26.539-14.108 9.494-30.328 27.518-38.146 42.39-9.346 17.778-14.378 40.15-13.719 61 .3 9.492.818 12.303 3.776 20.5 1.885 5.225 4.866 13.55 6.625 18.5 1.759 4.95 3.596 9.9 4.081 11 .485 1.1 3.46 8.975 6.61 17.5 3.15 8.525 6.593 17.75 7.65 20.5 1.73 4.499 8.487 22.96 10.248 28 .385 1.1 1.059 2.9 1.498 4 .439 1.1 2.467 6.5 4.506 12 2.04 5.5 4.082 10.9 4.539 12 2.296 5.526 5.975 15.43 5.975 16.085 0 .618 3.771 10.805 7.001 18.915.439 1.1 1.351 3.575 2.029 5.5.677 1.925 2.073 5.33 3.101 7.566 1.028 2.236 1.869 4.594 1.869 5.239 0 1.051 3.798 11.519 6.057 16.695.48 1.1 1.719 4.475 2.753 7.5 4.352 12.729 7.595 20.979 11.278 28.691 2.152 4.505 3.912 8.562 3.912 9.015 0 .453.912 2.525 2.026 4.604 1.115 2.079 2.777 5.658 3.695 7.952 2.476 6.186 10.966 20.78 19.338 33.238 5.091 7.575 11.291 14.909 19.917 23.555 16.064 16.105 25.202 23.004 39.524 29.841 3.85 1.838 8.35 4.006 10 4.818 19.541 9.614 52.794 12.418 79.5 6.704 20.692-4.428 47.162-15.866 61-26.36 1.925-1.46 4.74-3.432 6.255-4.383 6.243-3.915 25.908-25.091 32.515-35.011 20.742-31.144 30.258-64.459 30.29-106.039.008-10.519-.434-22.5-.982-26.625-2.657-19.989-3.449-24.412-6.539-36.5-4.64-18.154-7.984-29.122-12.046-39.518-1.921-4.917-3.493-9.218-3.493-9.559 0-.342-.728-2.264-1.619-4.272-.89-2.008-2.203-5.001-2.919-6.651-6.558-15.132-10.291-23.223-15.838-34.327-7.963-15.94-8.588-17.056-11.297-20.173-1.195-1.375-2.964-4.525-3.932-7-2.889-7.392-26.206-43.028-31.407-48-.287-.275-3.635-4.325-7.44-9-9.092-11.173-16.157-18.579-31.481-33-5.035-4.739-21.826-18.005-26.58-21-16.623-10.473-21.222-12.956-39.987-21.59-5.415-2.491-22.79-7.29-34-9.391-13.378-2.508-28.17-3-43.5-1.448m-639.42 14.912c-1.461 1.916-5.138 8.329-8.17 14.25-3.033 5.922-5.941 10.917-6.462 11.1-.521.184-.948.909-.948 1.612 0 .703-1.7 4.378-3.777 8.167-2.078 3.788-4.821 9.363-6.095 12.388-1.275 3.025-3.208 7.044-4.296 8.932-1.089 1.888-2.669 5.465-3.513 7.949-.844 2.485-2.559 6.791-3.812 9.568-1.253 2.778-3.077 7.735-4.053 11.015-.976 3.28-2.495 6.737-3.376 7.683-.881.945-2.197 3.887-2.924 6.536-.727 2.649-1.711 5.717-2.187 6.817-.477 1.1-2.251 6.5-3.944 12s-3.559 11.35-4.146 13c-.588 1.65-2.109 7.275-3.38 12.5a4503.489 4503.489 0 01-3.923 16c-2.09 8.43-6.453 28.509-7.169 33-.308 1.925-1.172 6.2-1.921 9.5-3.174 13.978-6.445 60.897-6.47 92.819-.008 9.251.693 27.629 1.558 40.841.865 13.213 1.342 24.622 1.061 25.354-.281.732-1.546 1.478-2.812 1.658-1.265.181-2.451 1.116-2.634 2.078-.267 1.401.375 1.75 3.221 1.75 3.951 0 3.778-.345 5.51 11 1.251 8.191 7.583 38.338 9.032 43 .598 1.925 1.942 7.55 2.985 12.5 1.044 4.95 2.636 11.025 3.539 13.5.902 2.475 2.442 8.1 3.422 12.5.979 4.4 2.979 10.447 4.442 13.437 1.464 2.991 2.662 6.012 2.662 6.715 0 2.197 3.145 10.776 4.527 12.348 1.362 1.549 4.433 9.595 4.458 11.68.008.649 1.31 4.024 2.893 7.5 4.797 10.535 9.734 21.987 12.208 28.32 1.289 3.3 3.524 7.575 4.967 9.5 1.442 1.925 4.758 7.775 7.368 13 2.61 5.225 5.296 10.175 5.969 11 .673.825 1.776 2.794 2.452 4.375.676 1.581 4.201 7.431 7.834 13a3914.054 3914.054 0 019.822 15.125c6.134 9.531 8.529 13.022 12.005 17.5 1.921 2.475 5.181 6.969 7.245 9.987s4.765 6.445 6.002 7.615c1.238 1.17 2.25 2.568 2.25 3.108 0 .539.958 1.837 2.13 2.885 1.171 1.048 3.138 3.48 4.37 5.405 1.233 1.925 4.447 5.75 7.144 8.5s6.661 7.199 8.809 9.887c13.594 17.011 64.196 63.397 81.659 74.854 3.086 2.025 8.032 5.612 10.991 7.971 4.651 3.707 11.474 8.197 35.392 23.288a503.166 503.166 0 008.951 5.5c2.307 1.375 6.413 3.954 9.125 5.731 2.711 1.777 5.472 3.24 6.135 3.25.663.01 2.819 1.114 4.791 2.452 1.972 1.339 5.782 3.163 8.467 4.055 2.685.892 5.422 2.272 6.081 3.067.66.795 1.801 1.445 2.537 1.445.735 0 5.166 1.971 9.847 4.38 4.682 2.408 10.306 5.097 12.499 5.974 2.193.878 5.919 2.444 8.279 3.48 2.361 1.036 6.979 2.676 10.261 3.645 3.283.968 6.883 2.348 8 3.066 1.118.717 5.857 2.52 10.532 4.006 4.675 1.487 9.625 3.263 11 3.948 3.039 1.514 9.266 3.565 14 4.61 1.925.425 6.195 1.741 9.49 2.925 3.294 1.183 10.394 2.991 15.777 4.017 5.384 1.026 10.254 2.153 10.822 2.504 1.491.921 17.365 4.097 24.411 4.883 3.3.369 8.25 1.297 11 2.064 5.602 1.562 13.631 2.7 37 5.246 19.936 2.173 87.981 2.487 107 .495 19.508-2.043 28.466-3.281 38-5.249 4.95-1.021 11.925-2.359 15.5-2.972 12.256-2.1 17.509-3.177 24.5-5.02 3.85-1.016 8.8-2.132 11-2.48 2.2-.349 6.587-1.343 9.75-2.21 5.157-1.413 5.746-1.846 5.707-4.194-.047-2.813-2.903-6.842-23.715-33.452-1.792-2.291-4.849-6.416-6.792-9.166-6.084-8.608-16.183-21.913-18.219-24-1.073-1.1-2.642-3.351-3.488-5.002-.846-1.652-2.529-3.899-3.739-4.994-1.211-1.096-3.952-4.991-6.093-8.657-2.141-3.665-5.714-8.107-7.94-9.87-2.225-1.763-4.991-5.066-6.146-7.341-2.048-4.036-11.785-16.498-16.868-21.589-1.399-1.401-3.632-4.331-4.964-6.511-1.331-2.179-3-4.654-3.709-5.5-5.721-6.822-8.24-10.015-10.286-13.036-2.304-3.402-3.683-5.155-10.998-13.989-1.925-2.324-3.918-4.965-4.428-5.868-.51-.904-3.119-4.568-5.796-8.143a1456.275 1456.275 0 01-6.572-8.828c-.937-1.28-3.295-4.205-5.24-6.5-1.944-2.294-4.869-5.97-6.5-8.168-8.526-11.495-9.173-13.599-4.714-15.327 3.158-1.224 19.507-7.401 36.25-13.696 31.638-11.894 29.521-10.886 29.295-13.944-.112-1.527-1.179-4.635-2.369-6.907-6.769-12.912-10.478-21.224-17.906-40.13-4.538-11.55-8.831-22.35-9.54-24-.709-1.65-1.72-4.575-2.246-6.5-.857-3.136-8.05-22.429-10.253-27.5-.477-1.1-2.028-5.375-3.445-9.5-1.417-4.125-2.972-8.4-3.455-9.5-.484-1.1-1.339-3.35-1.901-5s-3.501-9.525-6.531-17.5-7.137-19-9.127-24.5c-4.642-12.828-7.495-20.483-8.574-23-.471-1.1-2.179-5.825-3.796-10.5s-4.083-11.425-5.481-15c-1.397-3.575-4.177-11-6.178-16.5-3.703-10.179-9.036-24.381-10.515-28-.45-1.1-2.017-5.375-3.483-9.5-1.466-4.125-3.499-9.75-4.519-12.5-1.019-2.75-4.841-13.1-8.492-23-6.145-16.661-13.174-35.365-20.67-55-1.68-4.4-3.854-10.475-4.831-13.5-.977-3.025-2.771-7.975-3.987-11-2.338-5.819-6.138-16.125-12.904-35-2.268-6.325-4.541-12.4-5.052-13.5-1.227-2.641-8.04-21.255-8.04-21.967 0-.305-.869-2.462-1.931-4.794-1.063-2.331-2.616-6.264-3.452-8.739-2.171-6.425-9.33-25.942-19.443-53-2.775-7.425-7.729-20.7-11.009-29.5-7.185-19.278-5.388-18.526-24.165-10.119-2.824 1.264-50.152 37.979-63.318 49.119-.65.55-3.289 2.575-5.864 4.5-7.897 5.902-7.907 6.388-.446 21.424 3.569 7.192 7.467 15.326 8.664 18.076 1.196 2.75 2.772 6.35 3.502 8 .73 1.65 1.998 5.025 2.818 7.5.82 2.475 2.609 7.009 3.977 10.075 1.368 3.066 3.843 9.366 5.501 14 1.658 4.634 4.44 12.25 6.182 16.925a2039.54 2039.54 0 015.518 15c2.644 7.312 6.924 18.919 12.168 33a1495.018 1495.018 0 016.756 18.583c1.77 4.995 3.534 9.596 3.922 10.223.387.627 1.526 3.514 2.529 6.417 1.003 2.902 3.184 8.877 4.846 13.277A5207.307 5207.307 0 01467.5 642c3.15 8.525 7.073 19.1 8.718 23.5 1.646 4.4 4.485 12.05 6.311 17 1.825 4.95 4.736 12.825 6.47 17.5a2958.495 2958.495 0 015.515 15 1504.17 1504.17 0 005.968 16c1.983 5.225 4.283 11.525 5.112 14 .829 2.475 1.909 5.4 2.401 6.5.492 1.1 2.56 6.5 4.595 12 2.035 5.5 4.793 12.925 6.128 16.5a1115.016 1115.016 0 015.437 15c1.655 4.675 3.389 9.4 3.854 10.5 2.071 4.9 7.468 19.654 9.693 26.5 1.341 4.125 3.265 9.3 4.275 11.5 2.327 5.065 3.343 8.5 2.513 8.5-1.249 0-8.647-8.609-15.779-18.362-9.594-13.12-10.957-14.928-19.711-26.148-9.449-12.109-15.249-19.88-18.653-24.99-1.466-2.2-3.486-4.583-4.489-5.294-1.003-.712-3.261-3.412-5.018-6-5.729-8.439-14.115-19.63-17.387-23.206-1.762-1.925-5.622-7.062-8.578-11.414-2.956-4.353-6.5-9.107-7.875-10.564-1.375-1.458-3.976-4.646-5.78-7.086-1.804-2.44-5.503-7.361-8.22-10.936a2011.677 2011.677 0 01-8.22-10.893c-1.804-2.416-4.05-5.211-4.99-6.21-.941-1-2.741-3.351-4-5.224-1.26-1.874-4.99-6.838-8.29-11.031-3.3-4.194-7.575-9.977-9.5-12.852-1.925-2.876-5.075-6.821-7-8.769-1.925-1.947-4.12-4.739-4.878-6.204-.757-1.464-3.007-4.699-5-7.187-1.992-2.488-4.747-6.159-6.122-8.158-1.375-1.999-5.103-6.635-8.284-10.303-3.182-3.668-7.801-9.594-10.265-13.169-2.464-3.575-6.276-8.75-8.471-11.5-2.195-2.75-4.756-6.125-5.691-7.5-.936-1.375-3.859-5.036-6.495-8.136-2.637-3.099-4.794-6.07-4.794-6.601 0-.532-1.35-2.379-3-4.106-1.65-1.726-3-3.565-3-4.085s-1.155-2.212-2.566-3.759C316.885 556.229 309 546.714 309 546.1c0-.356-3.61-5.361-8.022-11.123A9697.609 9697.609 0 01285.728 515c-3.976-5.225-7.548-9.644-7.94-9.821-.392-.176-1.723-1.976-2.958-4-1.234-2.023-5-7.056-8.368-11.183-3.368-4.127-7.363-9.752-8.878-12.5-1.515-2.748-4.662-7.021-6.994-9.496-2.331-2.475-4.941-5.625-5.799-7-.858-1.375-4.537-5.867-8.176-9.981-3.638-4.115-6.615-7.898-6.615-8.408 0-1.096-6.766-10.195-12.465-16.761-2.219-2.558-5.61-6.987-7.535-9.844-1.925-2.856-4.963-6.789-6.75-8.739-1.787-1.951-3.25-3.891-3.25-4.312 0-.421-1.463-2.529-3.25-4.683s-4.15-5.187-5.25-6.739c-1.1-1.552-3.143-4.219-4.539-5.927-1.397-1.708-3.197-4.064-4-5.234-4.15-6.046-13.612-18.297-16.506-21.372-4.559-4.845-11.455-14.213-11.455-15.563 0-.614-1.53-2.876-3.399-5.027-1.87-2.15-4.841-5.597-6.604-7.66-1.762-2.062-3.554-3.75-3.982-3.75-.428 0-1.973 1.568-3.435 3.483M472 332c0 .55 1.012.993 2.25.985 1.819-.013 1.963-.201.75-.985-1.939-1.253-3-1.253-3 0m14.75.662c.688.278 1.813.278 2.5 0 .688-.277.125-.504-1.25-.504s-1.937.227-1.25.504m-225.143 56.92c-.87 2.268-.906 2.212 2.508 3.977 3.97 2.053 5.782.706 4.079-3.032-1.319-2.896-5.603-3.51-6.587-.945m370.06 28.085c-1.268 1.267-.659 2.333 1.333 2.333 1.111 0 2-.667 2-1.5 0-1.522-2.115-2.051-3.333-.833M254.5 439c-.816 1.32.38 3.192 1.569 2.457 1.215-.75 1.207-3.457-.01-3.457-.518 0-1.219.45-1.559 1m740 97c.34.55.816 1 1.059 1s.441-.45.441-1-.477-1-1.059-1-.781.45-.441 1m48.2 106.341c-.283.737-.125 1.971.351 2.741 1.167 1.888 3.457-.316 2.613-2.515-.737-1.92-2.27-2.037-2.964-.226M997 646.5c0 .825.45 1.5 1 1.5s1-.675 1-1.5-.45-1.5-1-1.5-1 .675-1 1.5M748 651c0 .55.45 1 1 1s1-.45 1-1-.45-1-1-1-1 .45-1 1m396.563 51.897c-.305.494-.275 2.294.066 4 .545 2.721 1.029 3.103 3.931 3.103 4.522 0 8.44-1.628 8.44-3.507 0-.856-.787-1.799-1.75-2.097-.963-.298-2.531-.959-3.486-1.469-2.214-1.182-6.478-1.199-7.201-.03M768 706c.589 1.1 1.28 2 1.535 2 .256 0 .465-.9.465-2 0-1.131-.667-2-1.535-2-1.225 0-1.319.404-.465 2m11 3c0 .55.45 1 1 1s1-.45 1-1-.45-1-1-1-1 .45-1 1m55 11.417c0 .871.712 1.583 1.583 1.583 1.766 0 1.459-2.153-.395-2.771-.654-.218-1.188.317-1.188 1.188m-39.921 17.166c.048 1.165.285 1.402.604.605.289-.722.253-1.585-.079-1.917-.332-.332-.568.258-.525 1.312M798.5 747c.34.55 1.068 1 1.618 1s.722-.45.382-1c-.34-.55-1.068-1-1.618-1s-.722.45-.382 1m278.053 4.915a1.116 1.116 0 00.362 1.532c.521.322 1.21.159 1.532-.362a1.116 1.116 0 00-.362-1.532 1.116 1.116 0 00-1.532.362m54.035 15.942c-.869 1.406.468 4.291 1.785 3.852 1.48-.493 1.456-3.933-.031-4.428-.637-.213-1.426.047-1.754.576M46.441 787.096c-1.057 1.71 2.277 4.586 3.685 3.178.627-.627.869-1.845.538-2.707-.692-1.803-3.225-2.086-4.223-.471m822.777 3.058c.246.741 1.25 1.501 2.23 1.692 1.14.22 1.621-.14 1.334-1-.246-.741-1.25-1.501-2.23-1.692-1.14-.22-1.621.14-1.334 1m74.397 57.66c-.751 1.214.267 4.186 1.433 4.186 1.716 0 2.135-2.245.689-3.692-.929-.928-1.737-1.117-2.122-.494M65.5 859c.34.55.816 1 1.059 1s.441-.45.441-1-.477-1-1.059-1-.781.45-.441 1m811.75 30.25c.63 1.892 3.75 2.161 3.75.323 0-.927-.855-1.573-2.083-1.573-1.222 0-1.912.517-1.667 1.25m7.293 9.681c-.317.512-.118 1.213.441 1.559 1.193.737 3.016-.199 3.016-1.549 0-1.217-2.707-1.225-3.457-.01M81 900.5c0 .825.45 1.5 1 1.5s1-.675 1-1.5-.45-1.5-1-1.5-1 .675-1 1.5m1018 4.5c0 .55.45 1 1 1s1-.45 1-1-.45-1-1-1-1 .45-1 1m-60 24.5c0 .917.484 1.505 1.075 1.308.591-.197 1.075-.785 1.075-1.308s-.484-1.111-1.075-1.308c-.591-.197-1.075.391-1.075 1.308m-173.846 3.052c.191.98.951 1.984 1.692 2.23.86.287 1.22-.194 1-1.334-.191-.98-.951-1.984-1.692-2.23-.86-.287-1.22.194-1 1.334m-154.341 46.131c.721.289 1.584.253 1.916-.079.332-.332-.258-.568-1.312-.525-1.165.048-1.402.285-.604.604M730 1035c0 2.274 2.508 2.725 3.324.598.628-1.636-.11-2.598-1.991-2.598-.733 0-1.333.9-1.333 2m-15.5 9c-.34.55-.141 1 .441 1s1.059-.45 1.059-1-.198-1-.441-1-.719.45-1.059 1m291.423 54.82c-1.86.803-5.465 3.58-14.92 11.494-3.819 3.197-9.095 6.954-11.724 8.348-2.628 1.394-5.454 3.171-6.279 3.949-2.391 2.252-11.139 8.173-15.5 10.49-2.2 1.169-4.9 2.945-6 3.948-3.384 3.084-15.824 10.951-17.317 10.951-.776 0-4.731 2.069-8.788 4.598-7.749 4.83-22.099 12.607-31.395 17.016-5.669 2.689-9.513 4.397-19 8.443-3.025 1.29-6.175 2.872-7 3.516-1.778 1.389-7.326 3.887-11.429 5.147-3.132.962-5.486 3.698-4.247 4.937.414.414 2.198.166 3.964-.55 1.767-.717 6.256-2.402 9.975-3.744 3.72-1.343 8.396-3.549 10.39-4.902 1.994-1.354 4.171-2.461 4.836-2.461.666 0 5.146-2.025 9.956-4.5 4.811-2.475 9.163-4.5 9.671-4.5.508 0 2.602-1.059 4.654-2.354 2.051-1.295 4.855-2.701 6.23-3.126 1.375-.424 4.458-2.08 6.851-3.68s6.603-4.05 9.356-5.445c2.753-1.395 6.825-3.855 9.049-5.466 2.224-1.611 4.397-2.929 4.828-2.929 1.706 0 17.877-10.396 31.916-20.519 4.125-2.975 9.105-6.292 11.067-7.372 1.962-1.079 4.161-2.679 4.888-3.554.726-.876 2.768-2.279 4.538-3.119 1.77-.839 3.793-2.601 4.496-3.915.703-1.313 3.468-3.749 6.144-5.413 6.092-3.787 6.697-7.834.79-5.288m-680.908 11.93c.009.412.452 1.425.985 2.25.784 1.213.972 1.069.985-.75.008-1.237-.435-2.25-.985-2.25s-.993.338-.985.75m-1.432 15.116c-.431.697-.513 1.537-.183 1.867.895.895 1.871-.421 1.387-1.871-.338-1.016-.574-1.016-1.204.004M462 1194.893c0 .491.712 1.166 1.582 1.5 2.446.939 2.769.735 1.418-.893-1.38-1.662-3-1.99-3-.607M531 1213c0 .55.45 1 1 1s1-.45 1-1-.45-1-1-1-1 .45-1 1" fill="undefined" fill-rule="evenodd"/></svg>